<svg width="360" height="360" viewBox="0 0 360 360" fill="none" xmlns="http://www.w3.org/2000/svg">
<path d="M180 360C279.411 360 360 279.411 360 180C360 80.5887 279.411 0 180 0C80.5887 0 0 80.5887 0 180C0 279.411 80.5887 360 180 360Z" fill="#313552"/>
<path d="M180 350C273.888 350 350 273.888 350 180C350 86.1116 273.888 10 180 10C86.1116 10 10 86.1116 10 180C10 273.888 86.1116 350 180 350Z" fill="#DAA520"/>
<path d="M180 340C268.366 340 340 268.366 340 180C340 91.6344 268.366 20 180 20C91.6344 20 20 91.6344 20 180C20 268.366 91.6344 340 180 340Z" fill="#313552"/>
<path d="M248.59 282.06C234.355 268.047 221.684 255.259 220.431 253.643L218.153 250.704V182.876L226.279 182.861C242.198 182.832 249.081 180.727 255.291 173.99C256.976 172.163 259.259 168.737 260.365 166.378C262.177 162.512 262.376 161.228 262.376 153.394C262.376 145.567 262.176 144.274 260.372 140.424C257.903 135.158 253.728 131.013 247.485 127.628L242.721 125.045L225.866 124.793C213.498 124.607 208.718 124.783 207.912 125.452C206.964 126.239 206.814 137.24 206.814 205.754V285.144L111.186 284.075L104.76 281.764C81.1401 273.269 64.2261 258.591 54.7471 238.364C49.5824 227.343 48.5496 222.175 48.4919 207.066C48.4346 192.061 49.4292 187.116 54.8173 175.618C61.9853 160.322 72.0933 149.666 89.7303 138.812C98.3445 133.511 98.2565 134.017 91.8038 126.871C88.7504 123.489 78.7648 113.531 69.6148 104.741C60.4642 95.9514 49.2358 84.4191 49.2358 84.1781C49.2358 83.9371 56.9827 75.7817 66.4508 66.0561L83.6658 48.3741L115.739 80.8401L144.07 109.163V177.432L134.431 177.905C117.816 178.721 113.667 179.983 107.548 186.078C96.0594 197.523 96.2454 217.745 107.942 228.686C114.381 234.709 116.264 235.195 136.357 236.013C146.043 236.408 154.207 236.491 154.5 236.198C154.792 235.905 155.032 199.72 155.032 155.787V75.909L195.475 76.0906C250.069 76.3358 254.701 76.8452 269.936 84.2783C290.951 94.5313 306.611 114.056 312.719 137.621C314.098 142.942 314.271 145.361 314.004 155.575C313.721 166.414 313.5 167.949 311.305 174.343C303.514 197.043 290.847 211.937 269.359 223.666L263.492 226.869L266.637 230.625C268.366 232.691 278.151 242.44 288.38 252.291C298.609 262.141 310.312 273.165 310.468 273.521C310.624 273.877 304.731 282.332 296.884 290.839C289.036 299.346 280.393 305.05 279.145 306.455L276.209 309.01L248.59 282.06Z" fill="#DAA520"/>
</svg>
